<svg width="164" height="241" viewBox="0 0 164 241" fill="none" xmlns="http://www.w3.org/2000/svg">
<mask id="path-1-inside-1" fill="white">
<path d="M136.861 0.956362C155.902 38.3264 165.195 79.9007 163.877 121.821C162.56 163.742 150.675 204.651 129.325 240.751L0.729885 164.701C9.26985 150.26 14.0239 133.897 14.5509 117.129C15.0778 100.36 11.3606 83.7306 3.74425 68.7825L136.861 0.956362Z"/>
</mask>
<path d="M136.861 0.956362C155.902 38.3264 165.195 79.9007 163.877 121.821C162.56 163.742 150.675 204.651 129.325 240.751L0.729885 164.701C9.26985 150.26 14.0239 133.897 14.5509 117.129C15.0778 100.36 11.3606 83.7306 3.74425 68.7825L136.861 0.956362Z" fill="white" stroke="#161616" stroke-opacity="0.15" stroke-width="4" mask="url(#path-1-inside-1)"/>
</svg>
